# Blender v2.78 (sub 0) OBJ File: 'Boardv2.blend'
# www.blender.org
o Cube_Cube.002
v -7.066693 -0.099308 7.066693
v -7.066693 0.099308 7.066693
v -7.066693 -0.099308 -7.066693
v -7.066693 0.099308 -7.066693
v 7.066693 -0.099308 7.066693
v 7.066693 0.099308 7.066693
v 7.066693 -0.099308 -7.066693
v 7.066693 0.099308 -7.066693
vt 0.0000 1.0000
vt 1.0000 0.0000
vt 0.0000 0.0000
vt 0.0000 1.0000
vt 1.0000 0.0000
vt 0.0000 0.0000
vt 1.0000 1.0000
vt 0.0000 0.0000
vt 1.0000 1.0000
vt 1.0000 0.0000
vt 1.0000 1.0000
vt 0.0000 1.0000
vt 1.0000 0.0000
vt 1.0000 1.0000
vt 0.0000 1.0000
vt 0.0000 0.0000
vn -1.0000 0.0000 0.0000
vn 0.0000 0.0000 -1.0000
vn 1.0000 0.0000 0.0000
vn 0.0000 0.0000 1.0000
vn 0.0000 -1.0000 0.0000
vn 0.0000 1.0000 0.0000
s off
f 2/1/1 3/2/1 1/3/1
f 4/4/2 7/5/2 3/6/2
f 8/7/3 5/8/3 7/5/3
f 6/9/4 1/3/4 5/10/4
f 7/11/5 1/3/5 3/12/5
f 4/4/6 6/13/6 8/7/6
f 2/1/1 4/14/1 3/2/1
f 4/4/2 8/7/2 7/5/2
f 8/7/3 6/15/3 5/8/3
f 6/9/4 2/1/4 1/3/4
f 7/11/5 5/10/5 1/3/5
f 4/4/6 2/16/6 6/13/6
