# Blender v2.78 (sub 0) OBJ File: 'Board.blend'
# www.blender.org
o BezierCurve
v -6.607382 0.411459 6.607382
v -6.607382 0.411459 -6.607382
v 6.607382 0.411459 -6.607382
v 6.607382 0.411459 6.607382
o Cube_Cube.002
v -11.108841 -0.127485 11.108841
v -11.108841 0.127485 11.108841
v -11.108841 -0.127485 -11.108841
v -11.108841 0.127485 -11.108841
v 11.108841 -0.127485 11.108841
v 11.108841 0.127485 11.108841
v 11.108841 -0.127485 -11.108841
v 11.108841 0.127485 -11.108841
vt 0.0000 1.0000
vt 1.0000 0.0000
vt 0.0000 0.0000
vt 0.0000 1.0000
vt 1.0000 0.0000
vt 0.0000 0.0000
vt 1.0000 1.0000
vt 0.0000 0.0000
vt 1.0000 1.0000
vt 1.0000 0.0000
vt 1.0000 1.0000
vt 0.0000 1.0000
vt 1.0000 0.0000
vt 1.0000 1.0000
vt 0.0000 1.0000
vt 0.0000 0.0000
vn -1.0000 0.0000 0.0000
vn 0.0000 0.0000 -1.0000
vn 1.0000 0.0000 0.0000
vn 0.0000 0.0000 1.0000
vn 0.0000 -1.0000 0.0000
vn 0.0000 1.0000 0.0000
s off
f 6/1/1 7/2/1 5/3/1
f 8/4/2 11/5/2 7/6/2
f 12/7/3 9/8/3 11/5/3
f 10/9/4 5/3/4 9/10/4
f 11/11/5 5/3/5 7/12/5
f 8/4/6 10/13/6 12/7/6
f 6/1/1 8/14/1 7/2/1
f 8/4/2 12/7/2 11/5/2
f 12/7/3 10/15/3 9/8/3
f 10/9/4 6/1/4 5/3/4
f 11/11/5 9/10/5 5/3/5
f 8/4/6 6/16/6 10/13/6
