# Blender v2.78 (sub 0) OBJ File: 'snakeBody.blend'
# www.blender.org
o Cube
v 0.800000 -1.000000 -1.000000
v 0.800000 -1.000000 1.000000
v 0.800000 0.116304 -1.000000
v 0.799999 0.116304 1.000000
v 0.400000 -1.000000 -1.000000
v 0.400000 -1.000000 1.000000
v 0.400000 0.600000 -1.000000
v 0.400000 0.600000 1.000000
v 1.000000 -1.000000 -0.678553
v 1.000000 -1.000000 0.678553
v 1.000000 0.395380 -0.678552
v 1.000000 0.395380 0.678554
v 0.500000 1.000000 -0.678552
v 0.500000 1.000000 0.678553
v 0.500000 -1.000000 0.678553
v 0.500000 -1.000000 -0.678553
v 0.050554 1.001915 0.023556
v 0.634481 1.001915 0.023556
v 0.050554 1.001915 -0.310154
v 0.634481 1.001915 -0.310154
v 0.245197 1.097231 0.273772
v 0.439839 1.097231 0.273772
v 0.439839 1.097231 -0.310154
v 0.245197 1.097231 -0.310154
v 0.358686 1.057217 0.520960
v 0.894389 0.824854 0.520960
v 0.358686 1.057217 0.187250
v 0.894389 0.824854 0.187250
v 0.575183 1.067206 0.771177
v 0.753751 0.989752 0.771177
v 0.753751 0.989752 0.187250
v 0.575183 1.067206 0.187250
v 0.365684 1.015978 -0.092622
v 0.880270 0.739986 -0.092622
v 0.365684 1.015978 -0.426332
v 0.880270 0.739986 -0.426332
v 0.582263 1.007977 0.157594
v 0.753792 0.915980 0.157594
v 0.753792 0.915980 -0.426332
v 0.582263 1.007977 -0.426332
v 0.246798 1.074845 -0.361063
v 0.800324 0.888889 -0.361063
v 0.246798 1.074845 -0.694773
v 0.800324 0.888889 -0.694773
v 0.461661 1.103213 -0.110846
v 0.646170 1.041227 -0.110846
v 0.646170 1.041227 -0.694773
v 0.461661 1.103213 -0.694773
v 0.813193 0.678107 0.520960
v 1.042985 0.141296 0.520960
v 0.813193 0.678107 0.187250
v 1.042985 0.141296 0.187250
v 0.977414 0.536680 0.771177
v 1.054011 0.357742 0.771177
v 1.054011 0.357742 0.187250
v 0.977414 0.536680 0.187250
v 0.798635 0.660598 -0.361063
v 1.073255 0.145278 -0.361063
v 0.798635 0.660598 -0.694773
v 1.073255 0.145278 -0.694773
v 0.974292 0.533651 -0.110846
v 1.065831 0.361878 -0.110846
v 1.065831 0.361878 -0.694773
v 0.974292 0.533651 -0.694773
v 0.617542 0.806286 0.012988
v 1.010673 0.374524 0.012988
v 0.617542 0.806286 -0.320722
v 1.010673 0.374524 -0.320722
v 0.819063 0.726536 0.263205
v 0.950107 0.582616 0.263205
v 0.950107 0.582616 -0.320722
v 0.819063 0.726536 -0.320722
v -0.026748 0.976386 0.590195
v 0.554910 1.027815 0.590195
v -0.026748 0.976386 0.256485
v 0.554910 1.027815 0.256485
v 0.158743 1.088474 0.840412
v 0.352629 1.105617 0.840412
v 0.352629 1.105617 0.256485
v 0.158743 1.088474 0.256485
v 0.987329 0.122039 0.520960
v 1.033368 -0.460070 0.520960
v 0.987329 0.122039 0.187250
v 1.033368 -0.460070 0.187250
v 1.097694 -0.064482 0.771177
v 1.113040 -0.258518 0.771177
v 1.113040 -0.258518 0.187250
v 1.097694 -0.064482 0.187250
v 0.967937 0.110106 -0.361063
v 1.063322 -0.465978 -0.361063
v 0.967937 0.110106 -0.694773
v 1.063322 -0.465978 -0.694773
v 1.093767 -0.066352 -0.110846
v 1.125562 -0.258380 -0.110846
v 1.125562 -0.258380 -0.694773
v 1.093767 -0.066352 -0.694773
v 0.946316 0.339805 0.093157
v 1.054980 -0.233922 0.093157
v 0.946316 0.339805 -0.240553
v 1.054980 -0.233922 -0.240553
v 1.076187 0.166300 0.343374
v 1.112408 -0.024943 0.343374
v 1.112408 -0.024943 -0.240553
v 1.076187 0.166300 -0.240553
v -0.800000 -1.000000 -1.000000
v -0.800000 -1.000000 1.000000
v 0.000000 -1.000000 1.000000
v 0.000000 -1.000000 -1.000000
v -0.800000 0.116304 -1.000000
v -0.799999 0.116304 1.000000
v 0.000000 0.600000 1.000000
v 0.000000 0.600000 -1.000000
v -0.400000 -1.000000 -1.000000
v -0.400000 -1.000000 1.000000
v -0.400000 0.600000 -1.000000
v -0.400000 0.600000 1.000000
v -1.000000 -1.000000 -0.678553
v -1.000000 -1.000000 0.678553
v 0.000000 -1.000000 0.678552
v 0.000000 -1.000000 -0.678553
v -1.000000 0.395380 -0.678552
v -1.000000 0.395380 0.678554
v 0.000000 1.000000 0.678552
v 0.000000 1.000000 -0.678553
v -0.500000 1.000000 -0.678552
v -0.500000 1.000000 0.678553
v -0.500000 -1.000000 0.678553
v -0.500000 -1.000000 -0.678553
v -0.050554 1.001915 0.023556
v -0.634481 1.001915 0.023556
v -0.050554 1.001915 -0.310154
v -0.634481 1.001915 -0.310154
v -0.245197 1.097231 0.273772
v -0.439839 1.097231 0.273772
v -0.439839 1.097231 -0.310154
v -0.245197 1.097231 -0.310154
v -0.358686 1.057217 0.520960
v -0.894389 0.824854 0.520960
v -0.358686 1.057217 0.187250
v -0.894389 0.824854 0.187250
v -0.575183 1.067206 0.771177
v -0.753751 0.989752 0.771177
v -0.753751 0.989752 0.187250
v -0.575183 1.067206 0.187250
v -0.365684 1.015978 -0.092622
v -0.880270 0.739986 -0.092622
v -0.365684 1.015978 -0.426332
v -0.880270 0.739986 -0.426332
v -0.582263 1.007977 0.157594
v -0.753792 0.915980 0.157594
v -0.753792 0.915980 -0.426332
v -0.582263 1.007977 -0.426332
v -0.246798 1.074845 -0.361063
v -0.800324 0.888889 -0.361063
v -0.246798 1.074845 -0.694773
v -0.800324 0.888889 -0.694773
v -0.461661 1.103213 -0.110846
v -0.646170 1.041227 -0.110846
v -0.646170 1.041227 -0.694773
v -0.461661 1.103213 -0.694773
v -0.813193 0.678107 0.520960
v -1.042985 0.141296 0.520960
v -0.813193 0.678107 0.187250
v -1.042985 0.141296 0.187250
v -0.977414 0.536680 0.771177
v -1.054011 0.357742 0.771177
v -1.054011 0.357742 0.187250
v -0.977414 0.536680 0.187250
v -0.798635 0.660598 -0.361063
v -1.073255 0.145278 -0.361063
v -0.798635 0.660598 -0.694773
v -1.073255 0.145278 -0.694773
v -0.974292 0.533651 -0.110846
v -1.065831 0.361878 -0.110846
v -1.065831 0.361878 -0.694773
v -0.974292 0.533651 -0.694773
v -0.617542 0.806286 0.012988
v -1.010673 0.374524 0.012988
v -0.617542 0.806286 -0.320722
v -1.010673 0.374524 -0.320722
v -0.819063 0.726536 0.263205
v -0.950107 0.582616 0.263205
v -0.950107 0.582616 -0.320722
v -0.819063 0.726536 -0.320722
v 0.026748 0.976386 0.590195
v -0.554910 1.027815 0.590195
v 0.026748 0.976386 0.256485
v -0.554910 1.027815 0.256485
v -0.158743 1.088474 0.840412
v -0.352629 1.105617 0.840412
v -0.352629 1.105617 0.256485
v -0.158743 1.088474 0.256485
v -0.987329 0.122039 0.520960
v -1.033368 -0.460070 0.520960
v -0.987329 0.122039 0.187250
v -1.033368 -0.460070 0.187250
v -1.097694 -0.064482 0.771177
v -1.113040 -0.258518 0.771177
v -1.113040 -0.258518 0.187250
v -1.097694 -0.064482 0.187250
v -0.967937 0.110106 -0.361063
v -1.063322 -0.465978 -0.361063
v -0.967937 0.110106 -0.694773
v -1.063322 -0.465978 -0.694773
v -1.093767 -0.066352 -0.110846
v -1.125562 -0.258380 -0.110846
v -1.125562 -0.258380 -0.694773
v -1.093767 -0.066352 -0.694773
v -0.946316 0.339805 0.093157
v -1.054980 -0.233922 0.093157
v -0.946316 0.339805 -0.240553
v -1.054980 -0.233922 -0.240553
v -1.076187 0.166300 0.343374
v -1.112408 -0.024943 0.343374
v -1.112408 -0.024943 -0.240553
v -1.076187 0.166300 -0.240553
vt 0.0878 0.9998
vt 0.0002 0.9294
vt 0.1097 0.9294
vt 0.3088 0.5615
vt 0.2597 0.4079
vt 0.3559 0.4533
vt 0.2937 0.0002
vt 0.2820 0.2792
vt 0.1937 0.0327
vt 0.0002 0.1221
vt 0.0910 0.0749
vt 0.8530 0.0757
vt 0.7707 0.4643
vt 0.6974 0.3959
vt 0.6741 0.2694
vt 0.3647 0.3104
vt 0.1754 0.9998
vt 0.2191 0.9294
vt 0.1754 0.5620
vt 0.1097 0.6323
vt 0.0878 0.5620
vt 0.2191 0.6323
vt 0.5933 0.2991
vt 0.6629 0.0094
vt 0.7559 0.0380
vt 0.6508 0.5615
vt 0.5999 0.4414
vt 0.0002 0.6323
vt 0.0002 0.5620
vt 0.0878 0.9998
vt 0.1097 0.9294
vt 0.2597 0.4079
vt 0.3559 0.4533
vt 0.2937 0.0002
vt 0.2820 0.2792
vt 0.3647 0.3104
vt 0.0910 0.0749
vt 0.8530 0.0757
vt 0.6974 0.3959
vt 0.6741 0.2694
vt 0.7559 0.0380
vt 0.1937 0.0327
vt 0.1754 0.9998
vt 0.2191 0.9294
vt 0.1754 0.5620
vt 0.1097 0.6323
vt 0.2191 0.6323
vt 0.5933 0.2991
vt 0.5999 0.4414
vt 0.6629 0.0094
vt 0.0878 0.5620
vt 0.0002 0.9998
vt 0.1918 0.4756
vt 0.9396 0.1179
vt 0.6690 0.5620
vt 0.7421 0.6094
vt 0.6143 0.6094
vt 0.6690 0.6994
vt 0.7421 0.6520
vt 0.7421 0.6994
vt 0.6143 0.6520
vt 0.3571 0.6167
vt 0.3097 0.6898
vt 0.3097 0.5620
vt 0.2196 0.6167
vt 0.2671 0.6898
vt 0.2196 0.6898
vt 0.2671 0.5620
vt 0.5407 0.5620
vt 0.6138 0.6094
vt 0.4859 0.6094
vt 0.5407 0.6994
vt 0.6138 0.6520
vt 0.6138 0.6994
vt 0.4859 0.6520
vt 0.2744 0.6903
vt 0.3475 0.7377
vt 0.2196 0.7377
vt 0.2744 0.8278
vt 0.3475 0.7803
vt 0.3475 0.8278
vt 0.2196 0.7803
vt 0.5407 0.6999
vt 0.6138 0.7474
vt 0.4859 0.7474
vt 0.5407 0.8374
vt 0.6138 0.7900
vt 0.6138 0.8374
vt 0.4859 0.7900
vt 0.7974 0.5620
vt 0.8704 0.6094
vt 0.7426 0.6094
vt 0.7974 0.6994
vt 0.8704 0.6520
vt 0.8704 0.6994
vt 0.7426 0.6520
vt 0.6690 0.6999
vt 0.7421 0.7474
vt 0.6143 0.7474
vt 0.6690 0.8374
vt 0.7421 0.7900
vt 0.7421 0.8374
vt 0.6143 0.7900
vt 0.2744 0.8283
vt 0.3475 0.8757
vt 0.2196 0.8757
vt 0.2744 0.9658
vt 0.3475 0.9183
vt 0.3475 0.9658
vt 0.2196 0.9183
vt 0.4124 0.6999
vt 0.4854 0.7474
vt 0.3576 0.7474
vt 0.4124 0.8374
vt 0.4854 0.7900
vt 0.4854 0.8374
vt 0.3576 0.7900
vt 0.4124 0.5620
vt 0.4854 0.6094
vt 0.3576 0.6094
vt 0.4124 0.6994
vt 0.4854 0.6520
vt 0.4854 0.6994
vt 0.3576 0.6520
vt 0.7974 0.6999
vt 0.8704 0.7474
vt 0.7426 0.7474
vt 0.7974 0.8374
vt 0.8704 0.7900
vt 0.8704 0.8374
vt 0.7426 0.7900
vt 0.7421 0.6094
vt 0.6690 0.5620
vt 0.6143 0.6094
vt 0.6690 0.6994
vt 0.7421 0.6520
vt 0.6143 0.6520
vt 0.3097 0.6898
vt 0.3571 0.6167
vt 0.3097 0.5620
vt 0.2196 0.6167
vt 0.2671 0.6898
vt 0.2671 0.5620
vt 0.6138 0.6094
vt 0.5407 0.5620
vt 0.4859 0.6094
vt 0.5407 0.6994
vt 0.6138 0.6520
vt 0.4859 0.6520
vt 0.3475 0.7377
vt 0.2744 0.6903
vt 0.2196 0.7377
vt 0.2744 0.8278
vt 0.3475 0.7803
vt 0.2196 0.7803
vt 0.6138 0.7474
vt 0.5407 0.6999
vt 0.4859 0.7474
vt 0.5407 0.8374
vt 0.6138 0.7900
vt 0.4859 0.7900
vt 0.8704 0.6094
vt 0.7974 0.5620
vt 0.7426 0.6094
vt 0.7974 0.6994
vt 0.8704 0.6520
vt 0.7426 0.6520
vt 0.7421 0.7474
vt 0.6690 0.6999
vt 0.6143 0.7474
vt 0.6690 0.8374
vt 0.7421 0.7900
vt 0.6143 0.7900
vt 0.3475 0.8757
vt 0.2744 0.8283
vt 0.2196 0.8757
vt 0.2744 0.9658
vt 0.3475 0.9183
vt 0.2196 0.9183
vt 0.4854 0.7474
vt 0.4124 0.6999
vt 0.3576 0.7474
vt 0.4124 0.8374
vt 0.4854 0.7900
vt 0.3576 0.7900
vt 0.4854 0.6094
vt 0.4124 0.5620
vt 0.3576 0.6094
vt 0.4124 0.6994
vt 0.4854 0.6520
vt 0.3576 0.6520
vt 0.8704 0.7474
vt 0.7974 0.6999
vt 0.7426 0.7474
vt 0.7974 0.8374
vt 0.8704 0.7900
vt 0.7426 0.7900
vt 0.7421 0.5620
vt 0.3571 0.6898
vt 0.6138 0.5620
vt 0.3475 0.6903
vt 0.6138 0.6999
vt 0.8704 0.5620
vt 0.7421 0.6999
vt 0.3475 0.8283
vt 0.4854 0.6999
vt 0.4854 0.5620
vt 0.8704 0.6999
vt 0.7421 0.5620
vt 0.7421 0.6994
vt 0.3571 0.6898
vt 0.2196 0.6898
vt 0.6138 0.5620
vt 0.6138 0.6994
vt 0.3475 0.6903
vt 0.3475 0.8278
vt 0.6138 0.6999
vt 0.6138 0.8374
vt 0.8704 0.5620
vt 0.8704 0.6994
vt 0.7421 0.6999
vt 0.7421 0.8374
vt 0.3475 0.8283
vt 0.3475 0.9658
vt 0.4854 0.6999
vt 0.4854 0.8374
vt 0.4854 0.5620
vt 0.4854 0.6994
vt 0.8704 0.6999
vt 0.8704 0.8374
vn 0.0000 -1.0000 0.0000
vn -0.0000 0.6264 0.7795
vn 0.8491 0.0000 0.5283
vn -0.0000 -0.0000 1.0000
vn 0.0000 0.0000 -1.0000
vn 0.5361 0.4433 0.7184
vn 0.5361 0.4433 -0.7184
vn 0.7706 0.6373 0.0000
vn 0.8491 -0.0000 -0.5283
vn 1.0000 0.0000 0.0000
vn 0.0000 0.6264 -0.7795
vn 0.0000 1.0000 0.0000
vn -0.8491 -0.0000 0.5283
vn -0.5361 0.4433 0.7184
vn -0.5361 0.4433 -0.7184
vn -0.7706 0.6373 0.0000
vn -0.8491 -0.0000 -0.5283
vn -1.0000 0.0000 0.0000
vn 0.4398 0.8981 0.0000
vn -0.4398 0.8981 0.0000
vn 0.7609 0.6489 0.0000
vn -0.0461 0.9989 0.0000
vn 0.3979 0.9174 0.0000
vn 0.8121 0.5836 0.0000
vn 0.0369 0.9993 0.0000
vn 0.4726 0.8813 0.0000
vn 0.7029 0.7113 0.0000
vn -0.1309 0.9914 0.0000
vn 0.3185 0.9479 0.0000
vn 0.9987 -0.0509 0.0000
vn 0.6526 0.7577 0.0000
vn 0.9193 0.3935 0.0000
vn 0.9994 0.0343 0.0000
vn 0.5857 0.8105 0.0000
vn 0.8825 0.4703 0.0000
vn 0.9602 0.2795 0.0000
vn 0.3680 0.9298 0.0000
vn 0.7394 0.6733 0.0000
vn 0.3590 0.9333 0.0000
vn -0.5172 0.8559 0.0000
vn -0.0881 0.9961 0.0000
vn 0.9300 -0.3676 0.0000
vn 0.8606 0.5092 0.0000
vn 0.9969 0.0788 0.0000
vn 0.9579 -0.2872 0.0000
vn 0.8142 0.5806 0.0000
vn 0.9866 0.1634 0.0000
vn 0.9643 -0.2650 0.0000
vn 0.8006 0.5992 0.0000
vn 0.9825 0.1861 0.0000
vn -0.7609 0.6489 0.0000
vn 0.0461 0.9989 0.0000
vn -0.3979 0.9174 0.0000
vn -0.8121 0.5836 0.0000
vn -0.0369 0.9993 0.0000
vn -0.4726 0.8813 0.0000
vn -0.7029 0.7113 0.0000
vn 0.1309 0.9914 0.0000
vn -0.3185 0.9479 0.0000
vn -0.9987 -0.0509 0.0000
vn -0.6526 0.7577 0.0000
vn -0.9193 0.3935 0.0000
vn -0.9994 0.0343 0.0000
vn -0.5857 0.8105 0.0000
vn -0.8825 0.4703 0.0000
vn -0.9602 0.2795 0.0000
vn -0.3680 0.9298 0.0000
vn -0.7394 0.6733 0.0000
vn -0.3590 0.9333 0.0000
vn 0.5172 0.8559 0.0000
vn 0.0881 0.9961 0.0000
vn -0.9300 -0.3676 0.0000
vn -0.8606 0.5092 0.0000
vn -0.9969 0.0788 0.0000
vn -0.9579 -0.2872 0.0000
vn -0.8142 0.5806 0.0000
vn -0.9866 0.1634 0.0000
vn -0.9643 -0.2650 0.0000
vn -0.8006 0.5992 0.0000
vn -0.9825 0.1861 0.0000
s off
f 6/1/1 119/2/1 15/3/1
f 123/4/2 8/5/2 14/6/2
f 10/7/3 4/8/3 2/9/3
f 8/5/4 107/10/4 6/11/4
f 5/12/5 112/13/5 7/14/5
f 3/15/5 5/12/5 7/14/5
f 4/8/4 6/11/4 2/9/4
f 12/16/6 8/5/6 4/8/6
f 2/17/1 15/3/1 10/18/1
f 1/19/1 16/20/1 5/21/1
f 9/22/1 15/3/1 16/20/1
f 7/14/7 11/23/7 3/15/7
f 11/23/8 14/6/8 12/16/8
f 3/15/9 9/24/9 1/25/9
f 11/23/10 10/7/10 9/24/10
f 7/14/11 124/26/11 13/27/11
f 13/27/12 123/4/12 14/6/12
f 5/21/1 120/28/1 108/29/1
f 16/20/1 119/2/1 120/28/1
f 119/2/1 114/30/1 127/31/1
f 116/32/2 123/4/2 126/33/2
f 118/34/13 110/35/13 122/36/13
f 107/10/4 116/32/4 114/37/4
f 112/13/5 113/38/5 115/39/5
f 109/40/5 113/38/5 105/41/5
f 114/37/4 110/35/4 106/42/4
f 122/36/14 116/32/14 126/33/14
f 127/31/1 106/43/1 118/44/1
f 105/45/1 128/46/1 117/47/1
f 117/47/1 127/31/1 118/44/1
f 121/48/15 115/39/15 109/40/15
f 121/48/16 126/33/16 125/49/16
f 117/50/17 109/40/17 105/41/17
f 118/34/18 121/48/18 117/50/18
f 115/39/11 124/26/11 112/13/11
f 125/49/12 123/4/12 124/26/12
f 113/51/1 120/28/1 128/46/1
f 128/46/1 119/2/1 127/31/1
f 6/1/1 107/52/1 119/2/1
f 123/4/2 111/53/2 8/5/2
f 10/7/3 12/16/3 4/8/3
f 8/5/4 111/53/4 107/10/4
f 5/12/5 108/54/5 112/13/5
f 3/15/5 1/25/5 5/12/5
f 4/8/4 8/5/4 6/11/4
f 12/16/6 14/6/6 8/5/6
f 2/17/1 6/1/1 15/3/1
f 1/19/1 9/22/1 16/20/1
f 9/22/1 10/18/1 15/3/1
f 7/14/7 13/27/7 11/23/7
f 11/23/8 13/27/8 14/6/8
f 3/15/9 11/23/9 9/24/9
f 11/23/10 12/16/10 10/7/10
f 7/14/11 112/13/11 124/26/11
f 13/27/12 124/26/12 123/4/12
f 5/21/1 16/20/1 120/28/1
f 16/20/1 15/3/1 119/2/1
f 119/2/1 107/52/1 114/30/1
f 116/32/2 111/53/2 123/4/2
f 118/34/13 106/42/13 110/35/13
f 107/10/4 111/53/4 116/32/4
f 112/13/5 108/54/5 113/38/5
f 109/40/5 115/39/5 113/38/5
f 114/37/4 116/32/4 110/35/4
f 122/36/14 110/35/14 116/32/14
f 127/31/1 114/30/1 106/43/1
f 105/45/1 113/51/1 128/46/1
f 117/47/1 128/46/1 127/31/1
f 121/48/15 125/49/15 115/39/15
f 121/48/16 122/36/16 126/33/16
f 117/50/17 121/48/17 109/40/17
f 118/34/18 122/36/18 121/48/18
f 115/39/11 125/49/11 124/26/11
f 125/49/12 126/33/12 123/4/12
f 113/51/1 108/29/1 120/28/1
f 128/46/1 120/28/1 119/2/1
f 18/55/19 23/56/19 22/57/19
f 17/58/20 24/59/20 19/60/20
f 22/57/12 24/59/12 21/61/12
f 26/62/21 31/63/21 30/64/21
f 25/65/22 32/66/22 27/67/22
f 30/64/23 32/66/23 29/68/23
f 34/69/24 39/70/24 38/71/24
f 33/72/25 40/73/25 35/74/25
f 38/71/26 40/73/26 37/75/26
f 42/76/27 47/77/27 46/78/27
f 41/79/28 48/80/28 43/81/28
f 46/78/29 48/80/29 45/82/29
f 50/83/30 55/84/30 54/85/30
f 49/86/31 56/87/31 51/88/31
f 54/85/32 56/87/32 53/89/32
f 58/90/33 63/91/33 62/92/33
f 57/93/34 64/94/34 59/95/34
f 62/92/35 64/94/35 61/96/35
f 66/97/36 71/98/36 70/99/36
f 65/100/37 72/101/37 67/102/37
f 70/99/38 72/101/38 69/103/38
f 74/104/39 79/105/39 78/106/39
f 73/107/40 80/108/40 75/109/40
f 78/106/41 80/108/41 77/110/41
f 82/111/42 87/112/42 86/113/42
f 81/114/43 88/115/43 83/116/43
f 86/113/44 88/115/44 85/117/44
f 90/118/45 95/119/45 94/120/45
f 89/121/46 96/122/46 91/123/46
f 94/120/47 96/122/47 93/124/47
f 98/125/48 103/126/48 102/127/48
f 97/128/49 104/129/49 99/130/49
f 102/127/50 104/129/50 101/131/50
f 135/132/20 130/133/20 134/134/20
f 129/135/19 136/136/19 133/137/19
f 136/136/12 134/134/12 133/137/12
f 143/138/51 138/139/51 142/140/51
f 137/141/52 144/142/52 141/143/52
f 144/142/53 142/140/53 141/143/53
f 151/144/54 146/145/54 150/146/54
f 145/147/55 152/148/55 149/149/55
f 152/148/56 150/146/56 149/149/56
f 159/150/57 154/151/57 158/152/57
f 153/153/58 160/154/58 157/155/58
f 160/154/59 158/152/59 157/155/59
f 167/156/60 162/157/60 166/158/60
f 161/159/61 168/160/61 165/161/61
f 168/160/62 166/158/62 165/161/62
f 175/162/63 170/163/63 174/164/63
f 169/165/64 176/166/64 173/167/64
f 176/166/65 174/164/65 173/167/65
f 183/168/66 178/169/66 182/170/66
f 177/171/67 184/172/67 181/173/67
f 184/172/68 182/170/68 181/173/68
f 191/174/69 186/175/69 190/176/69
f 185/177/70 192/178/70 189/179/70
f 192/178/71 190/176/71 189/179/71
f 199/180/72 194/181/72 198/182/72
f 193/183/73 200/184/73 197/185/73
f 200/184/74 198/182/74 197/185/74
f 207/186/75 202/187/75 206/188/75
f 201/189/76 208/190/76 205/191/76
f 208/190/77 206/188/77 205/191/77
f 215/192/78 210/193/78 214/194/78
f 209/195/79 216/196/79 213/197/79
f 216/196/80 214/194/80 213/197/80
f 18/55/19 20/198/19 23/56/19
f 17/58/20 21/61/20 24/59/20
f 22/57/12 23/56/12 24/59/12
f 26/62/21 28/199/21 31/63/21
f 25/65/22 29/68/22 32/66/22
f 30/64/23 31/63/23 32/66/23
f 34/69/24 36/200/24 39/70/24
f 33/72/25 37/75/25 40/73/25
f 38/71/26 39/70/26 40/73/26
f 42/76/27 44/201/27 47/77/27
f 41/79/28 45/82/28 48/80/28
f 46/78/29 47/77/29 48/80/29
f 50/83/30 52/202/30 55/84/30
f 49/86/31 53/89/31 56/87/31
f 54/85/32 55/84/32 56/87/32
f 58/90/33 60/203/33 63/91/33
f 57/93/34 61/96/34 64/94/34
f 62/92/35 63/91/35 64/94/35
f 66/97/36 68/204/36 71/98/36
f 65/100/37 69/103/37 72/101/37
f 70/99/38 71/98/38 72/101/38
f 74/104/39 76/205/39 79/105/39
f 73/107/40 77/110/40 80/108/40
f 78/106/41 79/105/41 80/108/41
f 82/111/42 84/206/42 87/112/42
f 81/114/43 85/117/43 88/115/43
f 86/113/44 87/112/44 88/115/44
f 90/118/45 92/207/45 95/119/45
f 89/121/46 93/124/46 96/122/46
f 94/120/47 95/119/47 96/122/47
f 98/125/48 100/208/48 103/126/48
f 97/128/49 101/131/49 104/129/49
f 102/127/50 103/126/50 104/129/50
f 135/132/20 132/209/20 130/133/20
f 129/135/19 131/210/19 136/136/19
f 136/136/12 135/132/12 134/134/12
f 143/138/51 140/211/51 138/139/51
f 137/141/52 139/212/52 144/142/52
f 144/142/53 143/138/53 142/140/53
f 151/144/54 148/213/54 146/145/54
f 145/147/55 147/214/55 152/148/55
f 152/148/56 151/144/56 150/146/56
f 159/150/57 156/215/57 154/151/57
f 153/153/58 155/216/58 160/154/58
f 160/154/59 159/150/59 158/152/59
f 167/156/60 164/217/60 162/157/60
f 161/159/61 163/218/61 168/160/61
f 168/160/62 167/156/62 166/158/62
f 175/162/63 172/219/63 170/163/63
f 169/165/64 171/220/64 176/166/64
f 176/166/65 175/162/65 174/164/65
f 183/168/66 180/221/66 178/169/66
f 177/171/67 179/222/67 184/172/67
f 184/172/68 183/168/68 182/170/68
f 191/174/69 188/223/69 186/175/69
f 185/177/70 187/224/70 192/178/70
f 192/178/71 191/174/71 190/176/71
f 199/180/72 196/225/72 194/181/72
f 193/183/73 195/226/73 200/184/73
f 200/184/74 199/180/74 198/182/74
f 207/186/75 204/227/75 202/187/75
f 201/189/76 203/228/76 208/190/76
f 208/190/77 207/186/77 206/188/77
f 215/192/78 212/229/78 210/193/78
f 209/195/79 211/230/79 216/196/79
f 216/196/80 215/192/80 214/194/80
